<?xml version="1.0" encoding="utf-8"?>
<!-- Generator: Adobe Illustrator 23.0.0, SVG Export Plug-In . SVG Version: 6.00 Build 0)  -->
<svg version="1.1" id="Layer_1" xmlns="http://www.w3.org/2000/svg" xmlns:xlink="http://www.w3.org/1999/xlink" x="0px" y="0px"
	 viewBox="0 0 553.66 250.92" style="enable-background:new 0 0 553.66 250.92;" xml:space="preserve">
<style type="text/css">
	.st0{fill:#04487F;}
	.st1{fill:#F57E3F;}
	.st2{fill:#F57E3F;stroke:#FFFFFF;stroke-width:2;stroke-linecap:round;stroke-linejoin:round;stroke-miterlimit:10;}
	.st3{fill:none;stroke:#FFFFFF;stroke-width:2;stroke-linecap:round;stroke-linejoin:round;stroke-miterlimit:10;}
</style>
<path class="st0" d="M35.19,68.85L35.19,68.85l0,16.32h0.51c5.87-8.93,20.66-19.38,38-19.38c36.72,0,60.95,26.52,60.95,64
	c0,34.43-21.42,66.04-56.61,66.04c-15.81,0-30.6-4.33-39.27-16.32h-0.51v71.4H25.54C11.44,250.92,0,239.48,0,225.37V104.04
	C0,84.6,15.75,68.85,35.19,68.85z M65.79,162.18c19.12,0,30.6-12.75,30.6-31.36s-11.47-31.36-30.6-31.36s-30.6,12.75-30.6,31.36
	S46.66,162.18,65.79,162.18z"/>
<path class="st0" d="M183.26,0L183.26,0l0,192.78h-38.25V38.25C145.01,17.12,162.13,0,183.26,0z"/>
<path class="st0" d="M297.87,192.78h-18.69v-16.83h-0.51c-5.1,9.69-17.6,19.89-36.21,19.89c-38.76,0-45.9-25.5-45.9-58.65V107.1
	c0-21.12,17.12-38.25,38.25-38.25h0v60.69c0,14.28,0.26,32.64,19.89,32.64c19.89,0,22.95-15.55,22.95-31.62V68.85h38.25v105.9
	C315.91,184.71,307.83,192.78,297.87,192.78z"/>
<path class="st0" d="M406.31,99.45h-23.57v41.31c0,13.26,1.53,22.95,18.11,22.95c4.08,0,12.24-0.51,15.55-3.57v31.88
	c-8.42,3.06-17.85,3.82-26.77,3.82c-25.5,0-45.14-10.45-45.14-37.48V99.45h-24.48V85.59c0-9.25,7.5-16.74,16.74-16.74h7.74v-4.01
	c0-18.06,14.64-32.71,32.71-32.71h5.54v36.72h23.57V99.45z"/>
<path class="st0" d="M484.8,65.79c-38.25,0-68.83,25.51-68.83,65.03c0,16.94,5.63,31.32,15.07,42.22
	c12.5,14.38,31.67,22.71,53.32,22.81h0.45c21.57,0,40.71-8.12,53.29-22.26c9.73-10.97,15.57-25.54,15.57-42.77
	C553.66,91.3,523.05,65.79,484.8,65.79z M484.8,162.17h-0.45c-11.1-0.13-19.61-4.57-24.69-12c-3.54-5.15-5.45-11.76-5.45-19.35
	c0-18.61,11.47-31.38,30.58-31.38c19.14,0,30.61,12.77,30.61,31.38c0,7.75-2.01,14.49-5.68,19.69
	C504.55,157.83,495.99,162.17,484.8,162.17z"/>
<ellipse class="st1" cx="484.35" cy="132.97" rx="22.53" ry="23.62"/>
<path class="st2" d="M509.73,150.51c-5.18,7.32-13.75,11.66-24.93,11.66h-0.45c-11.1-0.13-19.61-4.57-24.69-12
	c-3.67,1.9-19.01,10.31-28.63,22.87c12.5,14.38,31.67,22.71,53.32,22.81h0.45c21.57,0,40.71-8.12,53.29-22.26
	C528.98,161.4,514.44,153.02,509.73,150.51z"/>
<polygon class="st1" points="438.9,54.59 423.49,54.59 423.49,39.18 412.76,39.18 412.76,54.59 397.35,54.59 397.35,65.33 
	412.76,65.33 412.76,80.74 423.49,80.74 423.49,65.33 438.9,65.33 "/>
<path class="st0" d="M508.77,129.3h-48.41c0-13.35,10.83-24.21,24.21-24.21S508.77,115.95,508.77,129.3z"/>
<path class="st0" d="M509.36,132.04h-49.3c-0.92,0-1.67-0.75-1.67-1.67v-0.03c0-0.92,0.75-1.67,1.67-1.67h49.3
	c0.92,0,1.67,0.75,1.67,1.67v0.03C511.03,131.29,510.28,132.04,509.36,132.04z"/>
<path class="st3" d="M477.79,105.69l3.64,18.59c0.27,1.39,1.49,2.39,2.91,2.39l0,0c1.47,0,2.72-1.08,2.93-2.54l2.65-18.44"/>
</svg>
